<svg xmlns="http://www.w3.org/2000/svg" xmlns:xlink="http://www.w3.org/1999/xlink" version="1.0" x="0px" y="0px" viewBox="0 0 50 50" enable-background="new 0 0 50 50" xml:space="preserve"><path d="M40.1,26.5c2.5-1.6,4.1-4.4,4.1-7.6c0-5-4.1-9.1-9.1-9.1c-5,0-9.1,4.1-9.1,9.1c0,3.2,1.6,6,4.1,7.6c-2,0.8-3.7,2-5.1,3.6  c-1.4-1.5-3.1-2.8-5.1-3.6c2.5-1.6,4.1-4.4,4.1-7.6c0-5-4.1-9.1-9.1-9.1c-5,0-9.1,4.1-9.1,9.1c0,3.2,1.6,6,4.1,7.6  c-5,2-8.5,6.9-8.5,12.6c0,0.7,0.6,1.2,1.2,1.2c0.7,0,1.2-0.6,1.2-1.2c0-6.1,5-11.1,11.1-11.1c3.5,0,6.6,1.6,8.6,4.1  c-1.2,2-2,4.4-2,7c0,0.7,0.6,1.2,1.2,1.2c0.7,0,1.2-0.6,1.2-1.2c0-1.6,0.4-3.1,1-4.5c0.6,1.4,1,2.9,1,4.5c0,0.7,0.6,1.2,1.2,1.2  c0.7,0,1.2-0.6,1.2-1.2c0-2.6-0.7-4.9-2-7c2-2.5,5.1-4.1,8.6-4.1c6.1,0,11.1,5,11.1,11.1c0,0.7,0.6,1.2,1.2,1.2  c0.7,0,1.2-0.6,1.2-1.2C48.7,33.3,45.1,28.5,40.1,26.5z M14.9,25.5c-3.7,0-6.6-3-6.6-6.6c0-3.7,3-6.6,6.6-6.6c3.7,0,6.6,3,6.6,6.6  C21.5,22.5,18.6,25.5,14.9,25.5z M35.1,25.5c-3.7,0-6.6-3-6.6-6.6c0-3.7,3-6.6,6.6-6.6c3.7,0,6.6,3,6.6,6.6  C41.8,22.5,38.8,25.5,35.1,25.5z"/></svg>