<?xml version="1.0" encoding="utf-8"?>
<!-- Generator: Adobe Illustrator 15.1.0, SVG Export Plug-In . SVG Version: 6.00 Build 0)  -->
<!DOCTYPE svg PUBLIC "-//W3C//DTD SVG 1.1//EN" "http://www.w3.org/Graphics/SVG/1.1/DTD/svg11.dtd">
<svg version="1.1" id="Capa_1" xmlns="http://www.w3.org/2000/svg" xmlns:xlink="http://www.w3.org/1999/xlink" x="0px" y="0px"
	 width="401.856px" height="139.355px" viewBox="0 0 401.856 139.355" enable-background="new 0 0 401.856 139.355"
	 xml:space="preserve">
<g>
	<path fill="#3A3B39" d="M93.496,54.898c0-6.26,6.26-6.26,13.252-6.26c1.301,0,4.228,0,6.748,0.325v7.317
		c-2.927,3.252-6.667,5.935-11.87,5.935C96.179,62.133,93.496,59.694,93.496,54.898z M90.651,55.061
		c0,7.317,3.415,9.756,11.057,9.756c3.984,0,7.642-0.488,11.789-5.691v5.203c0.65,0.081,1.138,0.081,1.463,0.081
		s0.976,0,1.382-0.081v-21.3c0-8.943-5.447-11.545-13.658-11.545c-2.764,0-6.016,0.244-9.105,1.057
		c0.082,0.65,0.407,1.708,0.65,2.358c2.602-0.732,4.878-0.895,7.642-0.895c8.13,0,11.626,2.195,11.626,8.943v4.228h-0.325
		c-2.358-0.976-6.992-1.301-9.756-1.301C97.155,45.874,90.651,47.987,90.651,55.061z M77.887,55.223V34.41h8.048
		c0.082-0.487,0.082-1.057,0.082-1.382s0-0.65-0.082-1.138h-8.048v-10c-0.488-0.082-1.057-0.082-1.544-0.082
		c-0.325,0-0.65,0-1.301,0.082v10h-6.504c-0.082,0.488-0.082,0.813-0.082,1.138s0,0.895,0.082,1.382h6.504v20.813
		c0,7.235,2.276,9.187,9.105,9.187h1.788c0.082-0.406,0.082-1.057,0.082-1.219c0-0.407,0-0.732-0.082-1.382h-1.87
		C78.212,61.727,77.887,60.182,77.887,55.223z M50.896,34.004c8.699,0,9.837,3.252,9.837,8.211v4.634h-20
		C40.734,37.256,42.198,34.004,50.896,34.004z M51.954,64.816c2.764,0,7.642-0.244,10.731-0.976
		c-0.082-0.65-0.325-1.789-0.569-2.521c-2.927,0.732-7.479,0.895-10.244,0.895c-6.26,0-11.138-1.626-11.138-8.537v-4.146h22.845
		v-5.528c0-8.293-1.626-12.521-12.683-12.521c-10.406,0-13.008,3.902-13.008,14.309v7.317
		C37.889,61.971,43.824,64.816,51.954,64.816z M17.159,61.89H3.42V45.386h13.739c4.553,0,10.569,0,10.569,8.049
		C27.728,61.483,23.744,61.89,17.159,61.89z M27.728,34.654c0,7.967-6.016,8.211-10.569,8.211H3.42V26.28h13.739
		C23.826,26.28,27.728,26.605,27.728,34.654z M30.573,34.654c0-10.894-6.26-10.894-13.333-10.894H0.574V64.41H17.24
		c7.073,0,13.333-0.081,13.333-10.975c0-4.065-0.976-6.911-4.634-9.105C29.517,42.134,30.573,39.044,30.573,34.654z"/>
	<path fill="#3A3B39" d="M216.234,89.078l9.852-7.46c-0.574-1.147-1.148-2.104-1.626-2.678c-0.383-0.574-1.053-1.339-2.009-2.296
		l-21.998,16.546V63.638c-1.339-0.191-2.391-0.287-3.155-0.287c-0.67,0-1.722,0.096-3.061,0.287v50.69
		c1.339,0.191,2.391,0.287,3.156,0.287c0.67,0,1.722-0.096,3.061-0.287v-13.485l10.712-7.938l10.999,21.424
		c0.861,0.287,2.392,0.287,3.348,0.287c1.243,0,2.582-0.574,3.252-1.148L216.234,89.078z M187.735,81.427
		c0.191-1.243,0.287-2.2,0.287-2.869c0-0.861-0.096-1.817-0.478-2.678h-1.626c-3.826,0-8.034,0-10.712,3.443h-0.957l-0.574-2.678
		c-1.339-0.191-2.104-0.287-2.773-0.287c-0.765,0-1.53,0.096-2.87,0.287c0,0,0,0,0,37.683c1.339,0.191,2.391,0.287,3.061,0.287
		c0.765,0,1.817-0.096,3.156-0.287V89.461c0-5.547,2.391-8.034,9.756-8.034H187.735z M151.776,99.599c0,4.304,0,9.947-9.182,9.947
		s-9.182-5.643-9.182-9.947v-8.225c0-4.304,0-9.947,9.182-9.947s9.182,5.643,9.182,9.947V99.599z M142.594,75.88
		c-15.016,0-15.398,6.791-15.398,15.398v8.417c0,8.608,0.382,15.398,15.398,15.398c15.016,0,15.398-6.791,15.398-15.398v-8.417
		C157.993,82.67,157.61,75.88,142.594,75.88z M117.827,76.358c-0.957,0-2.104,0.096-3.061,0.287l-5.643,32.231l-7.078-28.597
		c-0.956-0.287-3.443-0.479-4.591-0.479c-1.052,0-3.634,0.191-4.591,0.479l-7.077,28.597l-5.834-32.231
		c-0.956-0.191-2.104-0.287-3.061-0.287c-1.147,0-2.104,0.096-3.156,0.287l7.46,37.205c2.104,0.765,2.295,0.765,4.399,0.765
		s3.061,0,4.591-0.669l6.791-25.441h0.957l6.791,25.441c1.53,0.669,2.487,0.669,4.591,0.669s2.295,0,4.399-0.765l7.269-37.205
		C119.931,76.454,118.974,76.358,117.827,76.358z M61.305,99.599c0,4.304,0,9.947-9.182,9.947s-9.182-5.643-9.182-9.947v-8.225
		c0-4.304,0-9.947,9.182-9.947s9.182,5.643,9.182,9.947V99.599z M52.123,75.88c-15.016,0-15.398,6.791-15.398,15.398v8.417
		c0,8.608,0.382,15.398,15.398,15.398c15.016,0,15.398-6.791,15.398-15.398v-8.417C67.521,82.67,67.139,75.88,52.123,75.88z
		 M6.217,89.557c0-6.121,4.208-8.13,10.042-8.13c3.156,0,8.512,0.287,11.477,1.244c0.957-1.626,1.435-3.061,1.435-5.26
		c-3.347-1.052-9.277-1.53-12.816-1.53C6.504,75.88,0,79.418,0,90.13v10.712c0,10.712,6.504,14.25,16.355,14.25
		c3.539,0,9.469-0.478,12.816-1.53c0-2.2-0.478-3.634-1.435-5.26c-2.965,0.957-8.321,1.244-11.477,1.244
		c-5.834,0-10.042-2.009-10.042-8.13V89.557z"/>
	<g>
		<path fill="#CED545" d="M337.726,22.988c0.779,0,1.736,0.552,2.126,1.228l16.147,27.967c0.39,0.676,0.39,1.78,0,2.455
			l-16.147,27.968c-0.39,0.675-1.347,1.227-2.126,1.227h-32.294c-0.779,0-1.736-0.552-2.126-1.227l-16.147-27.968
			c-0.39-0.675-0.39-1.779,0-2.455l16.147-27.967c0.39-0.676,1.347-1.228,2.126-1.228H337.726z"/>
		<path fill="#DD9C2F" d="M294.478,86.412l-13.683-23.699c-0.39-0.675-1.347-1.227-2.126-1.227h-27.365
			c-0.779,0-1.736,0.552-2.126,1.227l-13.681,23.699c-0.391,0.675-0.391,1.78,0,2.455l13.681,23.699
			c0.39,0.676,1.347,1.228,2.126,1.228h27.365c0.779,0,1.736-0.552,2.126-1.228l6.199-10.737c-7.866,3.652-19.732,1.823-24.215-7.85
			c7.043,2.433,17.086,3.47,28.151,1.032l3.547-6.144C294.867,88.192,294.867,87.087,294.478,86.412"/>
		<path fill="#78B4CD" d="M343.37,114.936L331.401,94.2c-0.391-0.675-1.347-1.227-2.126-1.227H305.33
			c-0.779,0-1.735,0.552-2.126,1.227l-11.97,20.736c-0.39,0.675-0.39,1.78,0,2.455l2.704,4.685c7.132,1.4,16.08,1.436,25.654-1.205
			c-2.247,7.733-12.94,11.214-21.565,8.289l5.177,8.969c0.391,0.675,1.347,1.227,2.126,1.227h23.945
			c0.779,0,1.735-0.552,2.125-1.227l11.97-20.738C343.76,116.715,343.76,115.61,343.37,114.936"/>
		<path fill="#FFFFFF" d="M276.75,80.234c2.239,0,2.242,5.447-0.319,4.806C273.866,84.399,274.023,80.234,276.75,80.234"/>
		<path fill="#FFFFFF" d="M265.02,85.475c-1.968-1.076,0.646-5.854,2.587-4.062C269.546,83.202,267.409,86.783,265.02,85.475"/>
		<path fill="#FFFFFF" d="M302.313,42.033c4.026,3.848,8.751,4.372,13.475-0.178C314.388,51.831,303.012,52.181,302.313,42.033"/>
		<path fill="#FFFFFF" d="M322.359,42.033c4.024,3.848,8.751,4.372,13.475-0.178C334.433,51.831,323.057,52.181,322.359,42.033"/>
		<path fill="#FFFFFF" d="M295.7,53.132c12.984,2.876,32.062,3.973,47.783,0.065C333.704,65.36,309.422,69.957,295.7,53.132"/>
		<path fill="#FFFFFF" d="M303.026,112.314c2.115,1.078-0.045,4.936-2.151,3.1C298.765,113.578,300.457,111.006,303.026,112.314"/>
		<path fill="#FFFFFF" d="M314.214,114.099c2.111,1.075-0.045,4.936-2.155,3.099C309.95,115.362,311.646,112.789,314.214,114.099"/>
		<path fill="#B65496" d="M272.651,0c0.553,0,1.231,0.392,1.509,0.87l11.198,19.39c0.276,0.479,0.276,1.261,0,1.74L274.16,41.393
			c-0.277,0.478-0.956,0.87-1.509,0.87H250.26c-0.553,0-1.231-0.392-1.507-0.87L237.558,22c-0.276-0.479-0.276-1.262,0-1.74
			l11.195-19.39C249.028,0.392,249.707,0,250.26,0H272.651z"/>
		<path fill="#FFFFFF" d="M263.027,16.912c2.864-0.499,2.526,4.035,0.357,4.137C261.216,21.149,258.761,17.651,263.027,16.912"/>
		<path fill="#FFFFFF" d="M256.661,18.24c2.866-0.496,2.528,4.037,0.36,4.137C254.851,22.477,252.392,18.979,256.661,18.24"/>
		<path fill="#FFFFFF" d="M246.777,27.705l29.009-4.447C269.682,32.238,253.776,39.521,246.777,27.705"/>
		<path fill="#F1CF38" d="M389.748,16.345c0.515,0,1.143,0.364,1.398,0.808l10.518,18.216c0.257,0.444,0.257,1.17,0,1.615
			l-10.517,18.214c-0.257,0.443-0.885,0.807-1.399,0.807h-21.021c-0.514,0-1.145-0.364-1.401-0.807l-10.519-18.214
			c-0.256-0.445-0.256-1.171,0-1.615l10.519-18.216c0.257-0.444,0.888-0.808,1.401-0.808H389.748z"/>
		<path fill="#FFFFFF" d="M386.864,23.233c-3.029,0-3.022,4.45,0.357,4.094C390.6,26.972,389.712,23.233,386.864,23.233"/>
		<path fill="#FFFFFF" d="M371.165,25.335c1.751-2.472-1.877-5.042-3.545-2.078C365.954,26.219,369.516,27.658,371.165,25.335"/>
		<path fill="#FFFFFF" d="M390.497,29.971c-6.034,2.083-14.866,2.873-24.489,0.217C368.592,39.091,385.473,40.815,390.497,29.971"/>
	</g>
</g>
</svg>
