<svg xmlns="http://www.w3.org/2000/svg" xmlns:xlink="http://www.w3.org/1999/xlink" version="1.1" x="0px" y="0px" viewBox="0 0 100 100" enable-background="new 0 0 100 100" xml:space="preserve"><g><g><path fill-rule="evenodd" clip-rule="evenodd" d="M30.172,81.375c1.378,0,2.495,1.117,2.495,2.494    c0,1.376-1.117,2.493-2.495,2.493c-1.376,0-2.493-1.117-2.493-2.493C27.679,82.493,28.796,81.375,30.172,81.375"/></g><g><path fill-rule="evenodd" clip-rule="evenodd" d="M25.876,81.032c0.53,0,0.961,0.43,0.961,0.96c0,0.531-0.431,0.962-0.961,0.962    c-0.53,0-0.96-0.431-0.96-0.962C24.916,81.461,25.346,81.032,25.876,81.032"/></g><g><path fill-rule="evenodd" clip-rule="evenodd" d="M35.021,83.898c0.53,0,0.962,0.431,0.962,0.962c0,0.529-0.432,0.96-0.962,0.96    c-0.53,0-0.959-0.431-0.959-0.96C34.062,84.329,34.491,83.898,35.021,83.898"/></g><path d="M80.235,29.818c-1.006-6.988-2.234-8.82-3.105-9.527C72.198,13.794,62.864,9.174,52.725,8.226   c-4.455-0.418-8.688-0.06-12.438,0.994c-0.627,0.07-1.224,0.164-1.772,0.282c-2.258,0.486-3.771,1.303-4.405,2.356   c-1.103,0.671-2.12,1.428-3.043,2.264l-0.007-0.006l-0.017,0.027c-0.014,0.012-0.028,0.023-0.042,0.036l0.011,0.012l-0.454,0.706   c-4.329,6.734-7.308,24.724-4.082,30.255c1.578,2.705,5.443,3.642,9.04,3.887v5.696h2.268v1.283h4.704v-1.283h2.247l0.019-6.337   c0.382-0.104,0.827-0.25,1.321-0.424l0.041,10.772c-1.745-0.34-3.618-0.519-5.508-0.519c-3.31,0-6.411,0.547-7.717,1.36   c-0.798,0.497-0.862,2.173-0.209,4.954c-2.125,0.617-4.023,1.4-5.456,2.278l-0.387,0.045c-2.823,0.328-5.364,1.89-7.154,4.397   c-2.138,2.995-2.987,7.048-2.215,10.577c1.074,4.911,13.832,10.106,24.82,10.106c5.729,0,10.769-1.332,14.576-3.852   c12.665-8.385,22.773-15.692,24.033-17.375C82.208,68.976,82.023,42.24,80.235,29.818z M52.566,9.926   c7.148,0.668,13.854,3.229,18.748,6.989c-2.237-0.846-4.988-1.388-8.695-1.388c-3.523,0-7.71,0.486-12.698,1.475   c0.61-0.164,1.186-0.345,1.669-0.565c1.946-0.886,2.362-1.999,2.368-2.773c0.009-0.764-0.379-1.884-2.272-2.884   c-0.781-0.412-1.688-0.743-2.713-1.009C50.148,9.765,51.346,9.812,52.566,9.926z M50.666,12.442   c0.036,0.018,0.078,0.032,0.113,0.051c0.985,0.521,1.242,0.979,1.241,1.152c-0.002,0.225-0.389,0.643-1.233,1.027   c-1.19,0.541-2.948,0.894-4.949,0.994c-2.453,0.122-4.984-0.147-6.991-0.728c-0.351-0.102-0.656-0.208-0.941-0.315   C40.72,11.991,45.707,11.145,50.666,12.442z M35.756,12.884c1.084-0.599,2.248-1.114,3.481-1.544   c1.133-0.217,2.45-0.337,3.849-0.337c0.646,0,1.275,0.033,1.894,0.082c-3.181,0.213-6.019,1.305-7.881,3.188   c-0.989-0.492-1.397-0.972-1.389-1.231C35.711,12.995,35.727,12.942,35.756,12.884z M33.984,13.978   c0.512,1.164,1.991,2.146,4.324,2.822c1.856,0.538,4.113,0.833,6.354,0.833c0.424,0,0.849-0.01,1.272-0.031   c0.792-0.04,1.538-0.129,2.255-0.241c-0.152,0.033-0.297,0.061-0.451,0.094c-3.812,0.48-6.173,0.686-7.893,0.686   c-3.549,0-4.692-0.866-7.396-2.955C32.936,14.761,33.444,14.355,33.984,13.978z M27.29,32.351   c2.126,1.993,7.926,2.239,10.644,2.239c3.621,0,7.858-0.437,9.649-1.255l0.12,4.079c-13.367,4.806-17.684,1.089-20.495-1.508   L27.29,32.351z M27.182,36.97c1.816,1.622,4.465,3.553,9.483,3.553c2.835,0,6.438-0.627,11.061-2.266l0.13,4.441   c-0.342,0.549-5.229,2.272-10.605,2.272c0,0-0.001,0-0.002,0c-4.051,0-9.097-0.987-10.123-5.593L27.182,36.97z M46.876,47.682   c0.145-0.054,0.307-0.117,0.458-0.174l0.022,11.526c-0.144-0.036-0.291-0.069-0.438-0.103L46.876,47.682z M48.137,47.2   c0.339-0.131,0.686-0.266,1.052-0.41c4.381-1.712,10.383-4.058,14.704-4.058c0.004,0,0.008,0,0.013,0l-0.571,25.831l-10.841-2.914   c0.473-1.063,0.317-1.842,0.031-2.35c-0.56-0.994-1.851-1.48-3.595-1.377c0.013-1.043-0.193-1.977-0.77-2.531L48.137,47.2z    M39.833,76.936c-0.755-0.06-1.471-0.155-2.163-0.271l19.835-3.43c-0.818,0.409-1.636,0.786-2.451,1.122L39.833,76.936z    M54.099,74.722c-4.785,1.818-9.419,2.441-13.352,2.262L54.099,74.722z M37.092,76.562c-0.368-0.072-0.721-0.152-1.067-0.238   l24.216-4.611c-0.722,0.438-1.444,0.844-2.169,1.222L37.092,76.562z M35.572,76.206c-0.416-0.115-0.81-0.241-1.188-0.377   l27.677-5.281c-0.448,0.308-0.898,0.588-1.35,0.87L35.572,76.206z M34.009,75.696c-0.274-0.106-0.529-0.221-0.78-0.337l9.441-1.894   c0.305-0.005,0.612-0.006,0.915-0.019c0.265-0.011,0.539-0.129,0.815-0.329l18.773-3.766l0.392,0.105   c-0.372,0.281-0.746,0.55-1.121,0.812L34.009,75.696z M34.087,69.059l-2.372,0.503c0.584-0.376,1.318-0.722,2.175-1.033   C33.954,68.706,34.021,68.882,34.087,69.059z M34.159,69.25c0.089,0.231,0.182,0.461,0.275,0.687l-4.037,0.831   c0.217-0.316,0.519-0.62,0.901-0.911L34.159,69.25z M34.515,70.125c0.079,0.185,0.157,0.365,0.237,0.542l-4.726,0.986   c0.038-0.221,0.116-0.438,0.232-0.652L34.515,70.125z M34.84,70.856c0.122,0.26,0.244,0.508,0.367,0.736l-5.11,1.041   c-0.086-0.255-0.12-0.511-0.105-0.767L34.84,70.856z M35.311,71.777c0.216,0.381,0.431,0.694,0.64,0.922l-5.125,1.067   c-0.292-0.308-0.509-0.624-0.648-0.943L35.311,71.777z M36.123,72.869c0.155,0.133,0.306,0.219,0.449,0.226   c0.451,0.062,0.906,0.095,1.36,0.142l-6.232,1.271c-0.263-0.186-0.504-0.375-0.708-0.569L36.123,72.869z M38.597,73.305   c1.021,0.09,2.042,0.146,3.06,0.157l-8.733,1.752c-0.119-0.059-0.253-0.11-0.366-0.172c-0.226-0.122-0.437-0.248-0.634-0.377   L38.597,73.305z M52.369,66.449l1.14,0.306l-2.004,0.418c0.038-0.046,0.074-0.086,0.113-0.133c0.146-0.179,0.263-0.347,0.377-0.514   L52.369,66.449z M50.818,65.199l-2.245-0.603c0.067-0.303,0.133-0.617,0.188-0.945c1.243-0.121,2.08,0.14,2.276,0.487   C51.139,64.32,51.106,64.678,50.818,65.199z M48.204,66.024c0.047-0.159,0.099-0.343,0.152-0.54l0.238-0.05l1.139,0.307   l-1.543,0.327C48.194,66.054,48.2,66.038,48.204,66.024z M48.118,66.29l2.044-0.434l0.176,0.047   c-0.016,0.021-0.028,0.038-0.044,0.059c-0.214,0.263-0.482,0.569-0.771,0.868l-1.701,0.351   C47.931,66.875,48.027,66.58,48.118,66.29z M47.739,67.402l1.527-0.314c-0.305,0.294-0.626,0.557-0.94,0.748l-0.813,0.17   C47.593,67.802,47.666,67.602,47.739,67.402z M51.29,67.423l2.65-0.553l1.912,0.514l-5.628,1.147   C50.567,68.218,50.922,67.85,51.29,67.423z M46.762,69.74c0.247,0.079,0.495,0.127,0.749,0.127c0.756,0,1.551-0.353,2.414-1.068   l6.363-1.297l2.016,0.542l-11.946,2.488C46.496,70.275,46.631,70.011,46.762,69.74z M46.226,70.765l12.509-2.605l1.772,0.476   l-14.821,3.021C45.87,71.379,46.05,71.08,46.226,70.765z M45.521,71.895l15.42-3.143l1.794,0.482L44.713,72.85   C44.984,72.596,45.255,72.272,45.521,71.895z M40.606,59.031c2.213,0,4.388,0.261,6.359,0.735c-0.244,0.14-0.62,0.298-1.226,0.449   c-3.232,0.811-9.479,0.608-11.741-0.26C35.31,59.459,37.723,59.031,40.606,59.031z M33.181,60.447   c1.277,0.717,4.256,1.08,7.209,1.08c2.075,0,4.127-0.178,5.544-0.532c0.875-0.219,1.475-0.498,1.843-0.836   c0.561,0.872,0.447,2.984-0.343,5.636c-1.138,3.816-3.021,6.815-3.882,6.85c-2.254,0.089-4.59-0.028-6.864-0.341   c-0.763-0.338-3.377-6.679-3.638-10.395C32.991,61.063,33.087,60.648,33.181,60.447z M27.603,68.611   c1.338-0.936,3.28-1.781,5.512-2.428c0.189,0.634,0.432,1.383,0.707,2.151c-3.166,1.148-3.949,2.509-4.031,3.463   c-0.104,1.216,0.845,2.431,2.672,3.422c1.815,0.983,4.378,1.682,7.399,1.914v0.001l0.003-0.001   c0.707,0.055,1.431,0.092,2.186,0.092c3.923,0,8.44-0.778,13.049-2.673l0.064-0.011l-0.002-0.014   c1.006-0.416,2.016-0.884,3.026-1.411l0.019-0.003l-0.001-0.006c0.876-0.457,1.75-0.962,2.621-1.508l0.012-0.002l-0.001-0.005   c1.002-0.628,1.997-1.315,2.982-2.067l4.881,1.312c-0.008,0.027-0.017,0.065-0.024,0.086c-0.945,3.78-14.75,9.041-27.046,9.042   c-0.001,0-0.001,0-0.002,0c-4.456,0-10.326-0.732-12.987-4.222C27.271,73.947,26.931,71.544,27.603,68.611z M64.132,68.778   l0.575-26.005c1.098,0.089,1.993,0.352,2.65,0.805c4.328,2.985,2.334,21.973,1.514,26.473L64.132,68.778z M79.486,69.751   C78.31,71.168,69.083,77.956,55.92,86.67c-3.525,2.334-8.24,3.567-13.632,3.567c-11.517,0-22.412-5.383-23.151-8.764   c-0.672-3.072,0.07-6.604,1.937-9.22c0.912-1.277,2.434-2.817,4.731-3.454c-0.618,3.201-0.122,5.881,1.479,7.979   c3.085,4.045,9.503,4.894,14.345,4.894c0.001,0,0.002,0,0.002,0c11.404-0.001,27.372-5.013,28.674-10.242   c0.37-0.986,4.123-25.052-1.977-29.259c-1.104-0.761-2.597-1.147-4.435-1.147c-4.643,0-10.817,2.413-15.325,4.175   c-1.992,0.778-3.712,1.451-4.63,1.642c-1.316,0.273-3.638,0.565-6.209,0.565c-2.973,0-8.197-0.405-9.777-3.114   c-0.365-0.626-0.636-1.58-0.817-2.765c1.61,2.756,5.11,4.247,10.115,4.247c0,0,0.001,0,0.002,0c4.986,0,10.206-1.508,11.157-2.486   c0.159-0.164,0.238-0.338,0.232-0.518l-0.302-11.116l-0.665,0.691c-0.669,0.696-4.743,1.441-9.74,1.441   c-6.109,0-10.273-1.135-10.617-2.894c0.664-5.112,2.063-10.532,4.195-14.274c2.785,2.15,4.255,3.229,8.334,3.229   c1.819,0,4.168-0.203,8.181-0.712c5.917-1.28,10.69-1.902,14.592-1.902c6.98,0,10.318,2.057,13.393,4.349   c1.341,1,2.275,5.505,2.901,11.39l-5.525,3.064l0.738,32.688l5.751-3.523C79.786,67.602,79.649,69.249,79.486,69.751z"/></g></svg>