<svg xmlns="http://www.w3.org/2000/svg" xmlns:xlink="http://www.w3.org/1999/xlink" version="1.1" x="0px" y="0px" viewBox="0 0 100 125" enable-background="new 0 0 100 100" xml:space="preserve"><path d="M52.798,65.809c-0.177,0.092-4.308,2.297-7.243,4.43c-0.705,0.509-0.858,1.489-0.35,2.188  c0.306,0.422,0.785,0.649,1.268,0.649c0.319,0,0.643-0.098,0.919-0.3c2.758-1.997,6.839-4.173,6.875-4.198  c0.766-0.404,1.054-1.354,0.65-2.12C54.508,65.686,53.552,65.41,52.798,65.809z M31.388,30.012  c-0.496,0.466-12.175,11.661-9.51,36.348c0.092,0.802,0.772,1.397,1.562,1.397c0.055,0,0.11,0,0.171-0.007  c0.858-0.097,1.483-0.87,1.391-1.734c-2.494-23.015,8.419-33.61,8.53-33.714c0.631-0.594,0.662-1.587,0.067-2.218  C33.006,29.448,32.026,29.424,31.388,30.012z M94.956,48.204c-0.68-1.893-2.537-2.904-3.676-3.364  C82.547,12.652,62.271,11.01,58.27,11.01l-0.448,0.013c-20.644,0-31.367,13.1-31.698,13.529  C13.539,37.138,12.877,58.988,12.853,62.389c-3.235,5.883-6.918,10.331-7.016,10.46c-1.011,1.392-1.293,2.935-0.809,4.479  c1.562,5.012,11.183,8.517,12.231,8.885c4.81,1.845,9.283,2.777,13.296,2.777c7.047,0,10.356-2.905,10.313-2.905  c13.444-8.273,25.871-17.464,25.81-17.464c15.864-7.218,25.693-12.8,27.249-15.453C95.464,50.992,95.336,49.27,94.956,48.204z   M91.224,51.581c-0.098,0.147-2.666,3.639-26.134,14.351c-0.122,0.092-12.482,9.247-26.091,17.654  c-0.024,0.018-2.653,2.266-8.444,2.266c-3.627,0-7.726-0.863-12.212-2.586c-3.548-1.244-9.491-4.209-10.325-6.875  c-0.123-0.393-0.19-0.944,0.294-1.618c0.128-0.153,2.586-3.143,5.3-7.5c0.202,1.489,0.404,2.359,0.423,2.445  c0.054,0.227,0.159,0.441,0.306,0.619c4.964,6.122,17.421,7.543,17.948,7.598c0.061,0.012,0.116,0.012,0.171,0.012  c0.478,0,0.932-0.22,1.232-0.6c0.337-0.423,0.429-0.993,0.245-1.501c-2.641-7.317-0.025-14.804,0-14.884  c0.288-0.815-0.135-1.709-0.95-2.004c-0.79-0.282-1.703,0.128-2.003,0.944c-0.11,0.312-2.488,7.059-0.729,14.541  c-3.548-0.662-10.141-2.31-13.242-5.803c-0.239-1.214-0.956-5.502-0.668-11.703c0.797-7.788,3.438-21.606,12.114-30.295  c0.098-0.122,10.209-12.482,29.363-12.482c0.031,0,0.417-0.006,0.448-0.012c3.634,0,22.163,1.556,30.191,32.305  c0.147,0.545,0.576,0.974,1.122,1.121c0.625,0.159,2.108,0.815,2.42,1.697C92.241,49.932,91.763,50.796,91.224,51.581z   M79.833,49.901c-0.178,0.092-4.308,2.298-7.243,4.43c-0.705,0.509-0.858,1.489-0.349,2.187c0.306,0.423,0.784,0.65,1.269,0.65  c0.319,0,0.643-0.098,0.919-0.3c2.757-1.997,6.839-4.173,6.875-4.198c0.766-0.404,1.054-1.354,0.65-2.12  C81.543,49.773,80.587,49.51,79.833,49.901z"/></svg>